<?xml version="1.0" standalone="no"?>
<!DOCTYPE svg PUBLIC "-//W3C//DTD SVG 20010904//EN"
 "http://www.w3.org/TR/2001/REC-SVG-20010904/DTD/svg10.dtd">
<svg version="1.0" xmlns="http://www.w3.org/2000/svg"
 width="384.000000pt" height="384.000000pt" viewBox="0 0 384.000000 384.000000"
 preserveAspectRatio="xMidYMid meet">
<metadata>
Created by potrace 1.14, written by Peter Selinger 2001-2017
</metadata>
<g transform="translate(0.000000,384.000000) scale(0.100000,-0.100000)"
fill="#000000" stroke="none">
<path d="M1110 2981 c0 -4 -27 -11 -60 -15 -33 -4 -60 -11 -60 -16 0 -6 -13
-10 -30 -10 -20 0 -30 -5 -30 -15 0 -9 -9 -15 -25 -15 -16 0 -25 -6 -25 -15 0
-8 -7 -15 -15 -15 -8 0 -15 -7 -15 -15 0 -8 -4 -15 -9 -15 -5 0 -13 -10 -17
-22 -4 -13 -12 -26 -18 -30 -16 -10 -14 -170 2 -176 6 -2 12 -10 12 -18 0 -8
7 -14 15 -14 8 0 15 -7 15 -15 0 -8 5 -15 11 -15 14 0 39 -25 39 -39 0 -6 12
-11 26 -11 14 0 32 -7 40 -15 9 -8 24 -15 35 -15 10 0 19 -4 19 -9 0 -4 21
-11 47 -14 26 -3 49 -10 51 -16 2 -6 30 -11 68 -11 35 0 64 -4 64 -9 0 -5 25
-13 55 -16 30 -4 55 -11 55 -15 0 -4 11 -11 24 -14 14 -3 28 -15 31 -26 3 -11
11 -20 16 -20 5 0 9 -9 9 -20 0 -23 18 -27 26 -5 4 8 12 15 20 15 7 0 31 18
53 40 22 22 44 40 50 40 6 0 11 7 11 15 0 9 9 15 25 15 16 0 25 6 25 15 0 8 5
15 11 15 11 0 39 25 39 35 0 14 -63 65 -80 65 -11 0 -20 7 -20 15 0 9 -10 15
-26 15 -14 0 -32 7 -40 15 -9 8 -29 15 -45 15 -16 0 -29 4 -29 9 0 5 -28 11
-62 13 -35 3 -64 10 -66 16 -2 8 -28 12 -68 12 -35 0 -64 4 -64 10 0 5 -18 13
-40 16 -39 6 -40 8 -40 45 0 27 4 39 14 39 8 0 16 6 18 12 3 9 31 13 88 13 57
0 85 -4 88 -13 2 -6 10 -12 18 -12 8 0 14 -7 14 -15 0 -8 4 -15 9 -15 5 0 12
-11 15 -25 l6 -25 160 0 c131 0 160 3 160 14 0 8 6 17 13 20 10 5 10 7 0 12
-7 3 -13 17 -13 30 0 14 -7 27 -15 30 -8 4 -15 17 -15 30 0 15 -6 24 -15 24
-8 0 -15 5 -15 11 0 17 -27 39 -48 39 -11 0 -22 7 -26 15 -3 8 -16 15 -30 15
-13 0 -26 5 -28 11 -2 6 -27 14 -56 17 -29 2 -52 8 -52 13 0 5 -67 9 -150 9
-82 0 -150 -4 -150 -9z"/>
<path d="M1860 2796 c0 -62 3 -141 7 -176 l6 -62 36 6 c20 3 37 10 39 16 2 5
25 10 52 10 27 0 50 5 52 11 2 6 27 14 56 17 29 2 52 8 52 12 0 4 23 10 52 12
29 3 54 11 56 17 2 6 15 11 28 11 19 0 24 5 24 24 0 13 -5 26 -11 28 -6 2 -14
27 -17 56 -2 29 -8 52 -13 52 -5 0 -9 10 -9 23 0 12 -7 30 -14 40 -12 15 -34
17 -205 17 l-191 0 0 -114z"/>
<path d="M2530 2895 c0 -8 -4 -15 -10 -15 -5 0 -10 -18 -10 -39 0 -22 -7 -46
-15 -55 -8 -8 -15 -31 -15 -50 0 -32 3 -36 25 -36 14 0 25 4 25 9 0 5 23 11
52 13 29 3 54 11 56 17 2 6 26 11 57 11 31 0 55 5 57 11 2 6 27 14 56 17 29 2
52 8 52 13 0 5 11 9 25 9 24 0 25 3 25 55 l0 55 -190 0 c-162 0 -190 -2 -190
-15z"/>
<path d="M2563 2643 c-46 -2 -83 -8 -83 -13 0 -6 -11 -10 -25 -10 -21 0 -25
-5 -25 -28 0 -16 -7 -37 -15 -48 -8 -10 -15 -29 -15 -41 0 -38 -19 -26 -26 17
-4 22 -10 40 -15 40 -5 0 -9 7 -9 15 0 18 -76 22 -82 4 -2 -5 -22 -13 -46 -16
-23 -3 -42 -9 -42 -14 0 -4 -10 -9 -22 -11 -18 -2 -22 -9 -20 -28 1 -14 7 -26
12 -28 6 -2 10 -25 10 -52 0 -33 5 -50 15 -54 10 -3 15 -19 15 -46 0 -22 4
-40 9 -40 5 0 11 -18 15 -40 3 -22 11 -40 16 -40 6 0 10 -22 10 -50 0 -38 4
-50 15 -50 9 0 15 -10 15 -26 0 -46 19 -54 134 -54 l106 0 0 40 c0 22 4 40 10
40 5 0 13 18 16 40 4 22 10 40 15 40 5 0 9 18 9 40 0 29 4 40 15 40 11 0 15
11 15 40 0 22 4 40 10 40 5 0 13 18 16 40 4 22 10 40 15 40 5 0 9 18 9 40 0
29 4 40 15 40 13 0 15 -33 15 -240 l0 -240 120 0 120 0 0 304 0 303 -37 7
c-37 6 -146 5 -310 -1z"/>
<path d="M2050 2500 c0 -5 -11 -12 -25 -16 -14 -3 -25 -10 -25 -15 0 -5 -11
-9 -25 -9 -14 0 -28 -7 -31 -15 -4 -8 -15 -15 -25 -15 -10 0 -28 -8 -39 -17
-18 -16 -20 -29 -20 -178 0 -88 3 -170 6 -182 6 -22 10 -23 125 -23 l119 0 0
240 0 240 -30 0 c-16 0 -30 -4 -30 -10z"/>
<path d="M878 2373 c-32 -2 -58 -8 -58 -13 0 -6 -18 -10 -40 -10 -43 0 -52
-16 -25 -44 8 -8 15 -26 15 -40 0 -14 4 -26 10 -26 5 0 12 -11 16 -25 3 -14
10 -25 15 -25 5 0 9 -7 9 -15 0 -8 5 -15 11 -15 7 0 22 -11 34 -24 12 -13 32
-27 43 -31 12 -3 22 -11 22 -16 0 -5 18 -9 40 -9 22 0 40 -4 40 -10 0 -6 33
-10 80 -10 47 0 80 4 80 10 0 6 7 10 15 10 8 0 15 7 15 15 0 9 9 15 25 15 16
0 25 6 25 15 0 8 5 15 11 15 7 0 22 11 35 25 13 14 30 25 39 25 8 0 15 5 15
10 0 6 -28 10 -64 10 -44 0 -69 5 -80 15 -8 8 -22 15 -32 15 -27 0 -84 67 -84
100 0 16 -7 30 -16 34 -16 6 -87 5 -196 -1z"/>
<path d="M1710 2311 c0 -5 -13 -12 -30 -16 -16 -4 -30 -11 -30 -16 0 -5 -7 -9
-15 -9 -8 0 -15 -4 -15 -9 0 -5 -10 -13 -22 -17 -12 -3 -28 -13 -36 -20 -7 -8
-20 -14 -28 -14 -8 0 -14 -4 -14 -10 0 -5 -7 -10 -15 -10 -8 0 -15 -7 -15 -15
0 -8 -5 -15 -11 -15 -6 0 -17 -6 -24 -12 -30 -27 -44 -38 -50 -38 -3 0 -16
-11 -29 -25 -13 -14 -28 -25 -35 -25 -6 0 -11 -7 -11 -15 0 -12 14 -15 70 -15
39 0 70 4 70 9 0 5 25 13 55 16 30 4 55 11 55 16 0 5 11 9 25 9 16 0 25 6 25
15 0 8 9 15 20 15 13 0 22 9 26 25 3 14 12 25 20 25 8 0 14 7 14 15 0 8 5 15
10 15 6 0 10 11 10 25 0 14 7 28 15 31 9 4 15 19 15 40 0 30 -3 34 -25 34 -14
0 -25 -4 -25 -9z"/>
<path d="M2590 1620 c0 -80 -4 -130 -10 -130 -5 0 -10 -7 -10 -15 0 -8 -7 -15
-15 -15 -8 0 -15 5 -15 10 0 6 -22 10 -49 10 -54 0 -61 -8 -61 -63 0 -52 9
-58 70 -48 84 14 90 3 90 -156 0 -74 5 -134 11 -143 8 -11 12 -12 16 -2 2 6
17 12 33 12 16 0 30 -6 33 -12 16 -45 22 45 25 343 l3 339 -61 0 -60 0 0 -130z"/>
<path d="M3076 1728 c-3 -13 -6 -35 -6 -50 0 -16 -4 -28 -10 -28 -5 0 -10 -25
-10 -55 0 -42 -3 -55 -15 -55 -8 0 -15 -5 -15 -11 0 -16 -103 -115 -128 -123
-12 -4 -22 -12 -22 -17 0 -5 -9 -9 -20 -9 -15 0 -20 -7 -20 -25 0 -14 6 -25
13 -25 14 0 47 -35 47 -50 0 -6 7 -10 15 -10 8 0 15 4 15 9 0 5 10 13 23 17
12 4 32 17 44 30 12 13 31 24 43 24 11 0 20 7 20 15 0 8 7 15 15 15 8 0 15 7
15 15 0 8 4 15 10 15 5 0 12 11 16 25 7 26 44 36 44 11 0 -16 45 -66 60 -66 6
0 21 -11 33 -24 13 -14 35 -28 50 -31 15 -4 27 -11 27 -16 0 -18 22 -9 51 21
36 35 36 73 2 78 -13 2 -23 8 -23 13 0 5 -6 9 -14 9 -8 0 -16 7 -20 15 -3 8
-14 15 -25 15 -11 0 -23 9 -26 20 -4 12 -25 38 -47 59 -38 37 -39 40 -33 85 4
25 11 46 16 46 5 0 9 9 9 20 0 24 -42 70 -48 52 -4 -14 -62 -16 -62 -2 0 19
-18 10 -24 -12z"/>
<path d="M3470 1676 c0 -86 0 -86 -100 -86 -71 0 -80 -6 -80 -52 0 -35 24 -48
88 -48 93 0 92 1 92 -101 l0 -89 60 0 60 0 0 225 0 225 -60 0 -60 0 0 -74z"/>
<path d="M334 1685 c-10 -8 -29 -15 -41 -15 -14 0 -23 -6 -23 -15 0 -8 -4 -15
-10 -15 -5 0 -12 -11 -16 -25 -3 -14 -10 -25 -15 -25 -5 0 -9 -36 -9 -80 0
-47 4 -80 10 -80 6 0 10 -11 10 -25 0 -16 6 -25 15 -25 8 0 15 -7 15 -15 0 -8
7 -15 15 -15 8 0 15 -4 15 -10 0 -5 11 -12 25 -16 14 -3 25 -10 25 -14 0 -4
11 -11 25 -14 14 -4 25 -11 25 -16 0 -6 14 -10 30 -10 17 0 30 -4 30 -10 0 -5
11 -12 25 -16 14 -3 25 -10 25 -15 0 -5 7 -9 15 -9 8 0 15 -7 15 -15 0 -8 5
-15 10 -15 6 0 10 -23 10 -51 0 -49 -15 -79 -39 -79 -6 0 -11 -7 -11 -15 0
-12 -16 -15 -80 -15 -64 0 -80 3 -80 15 0 9 -10 15 -26 15 -26 0 -54 20 -54
39 0 6 -6 11 -14 11 -8 0 -16 5 -18 12 -2 6 -10 8 -16 4 -7 -4 -12 -34 -12
-77 0 -55 3 -69 15 -69 8 0 15 -7 15 -15 0 -10 10 -15 29 -15 16 0 31 -6 34
-12 3 -10 37 -13 127 -13 90 0 124 3 128 13 2 6 17 12 33 12 19 0 29 5 29 15
0 8 5 15 11 15 14 0 30 18 52 57 23 41 24 174 2 197 -8 8 -15 17 -15 21 0 16
-90 95 -108 95 -11 0 -22 7 -26 15 -3 8 -17 15 -31 15 -14 0 -25 4 -25 10 0 5
-16 12 -35 16 -19 3 -35 10 -35 15 0 5 -7 9 -15 9 -8 0 -15 7 -15 15 0 8 -7
15 -15 15 -24 0 -20 85 5 110 17 17 33 20 105 20 47 0 85 -4 85 -9 0 -5 11
-12 25 -15 14 -4 25 -11 25 -16 0 -6 6 -10 14 -10 8 0 16 -7 20 -15 13 -36 26
-11 26 51 0 71 -8 86 -53 98 -15 3 -27 11 -27 16 0 17 -233 13 -256 -5z"/>
<path d="M700 1645 l0 -55 120 0 120 0 0 -330 c0 -286 2 -330 15 -331 8 -1 31
-1 50 -1 19 0 42 0 50 1 13 1 15 45 15 331 l0 330 120 0 120 0 0 28 c0 15 4
33 9 41 12 19 51 -16 51 -46 0 -13 5 -23 10 -23 6 0 10 -7 10 -15 0 -8 4 -15
9 -15 5 0 13 -10 17 -22 3 -12 13 -28 20 -36 8 -7 14 -20 14 -28 0 -8 5 -14
10 -14 6 0 10 -7 10 -15 0 -8 7 -15 15 -15 8 0 15 -9 15 -20 0 -12 11 -31 25
-44 27 -25 32 -59 13 -81 -33 -37 -38 -46 -38 -70 0 -16 -6 -25 -15 -25 -8 0
-15 -7 -15 -15 0 -8 -4 -15 -10 -15 -5 0 -12 -11 -16 -25 -3 -14 -10 -25 -15
-25 -5 0 -9 -7 -9 -15 0 -8 -4 -15 -10 -15 -5 0 -12 -11 -16 -25 -3 -14 -10
-25 -15 -25 -5 0 -9 -7 -9 -15 0 -8 -7 -15 -15 -15 -9 0 -15 -9 -15 -24 0 -13
-6 -27 -12 -29 -26 -11 12 -24 62 -22 46 1 80 20 80 44 0 6 7 11 15 11 8 0 15
9 15 20 0 12 11 31 25 44 14 13 25 33 25 45 0 12 6 21 15 21 9 0 15 9 15 25 0
14 5 25 10 25 6 0 10 7 10 15 0 8 7 15 16 15 20 0 44 -24 44 -44 0 -9 4 -16
10 -16 5 0 12 -11 16 -25 3 -14 10 -25 14 -25 4 0 11 -11 14 -25 4 -14 11 -25
16 -25 6 0 10 -11 10 -25 0 -16 6 -25 15 -25 8 0 15 -5 15 -10 0 -6 8 -19 18
-28 15 -16 50 -19 125 -13 21 1 23 21 2 21 -9 0 -15 9 -15 25 0 14 -4 25 -10
25 -5 0 -10 7 -10 15 0 9 -7 18 -15 21 -8 4 -15 15 -15 25 0 11 -7 22 -15 25
-8 4 -15 17 -15 30 0 15 -6 24 -15 24 -8 0 -15 7 -15 15 0 8 -4 15 -10 15 -5
0 -10 9 -10 20 0 11 -7 23 -15 26 -8 4 -15 12 -15 20 0 8 -4 14 -10 14 -5 0
-12 11 -16 25 -3 14 -10 25 -15 25 -5 0 -9 7 -9 15 0 8 4 15 10 15 5 0 12 11
16 25 3 14 10 25 15 25 5 0 9 7 9 15 0 8 4 15 10 15 5 0 12 11 16 25 3 14 10
25 14 25 4 0 11 11 14 25 4 14 11 25 16 25 6 0 10 7 10 15 0 8 4 15 10 15 5 0
12 11 16 25 3 14 10 25 15 25 5 0 9 7 9 15 0 8 7 15 15 15 9 0 15 9 15 25 0
14 5 25 10 25 6 0 10 7 10 15 0 12 -15 15 -75 15 -73 0 -75 -1 -75 -25 0 -16
-6 -25 -15 -25 -9 0 -15 -9 -15 -24 0 -13 -7 -26 -15 -30 -8 -3 -15 -15 -15
-27 0 -12 -11 -32 -25 -45 -14 -13 -25 -30 -25 -38 0 -17 -30 -56 -42 -56 -5
0 -8 7 -8 15 0 8 -7 15 -15 15 -9 0 -15 9 -15 24 0 13 -7 26 -15 30 -8 3 -15
15 -15 26 0 11 -4 20 -10 20 -5 0 -10 7 -10 15 0 9 -7 18 -15 21 -8 4 -15 17
-15 30 0 13 -4 24 -10 24 -5 0 -12 11 -16 25 l-6 25 -384 0 -384 0 0 -55z"/>
<path d="M2010 1651 c0 -35 4 -51 16 -55 9 -3 74 -6 145 -6 l129 0 0 -35 c0
-19 -4 -35 -9 -35 -5 0 -12 -13 -16 -30 -4 -16 -11 -30 -16 -30 -5 0 -9 -7 -9
-15 0 -8 -7 -15 -15 -15 -8 0 -15 -5 -15 -11 0 -14 -25 -39 -39 -39 -6 0 -11
-7 -11 -15 0 -8 -7 -15 -15 -15 -8 0 -15 -4 -15 -10 0 -5 -11 -12 -25 -16 -14
-3 -25 -10 -25 -14 0 -4 -11 -11 -25 -14 -14 -4 -25 -11 -25 -16 0 -6 -13 -10
-30 -10 -27 0 -30 -3 -30 -32 0 -43 43 -82 80 -73 14 4 27 11 28 16 2 5 15 9
28 9 15 0 24 6 24 15 0 8 9 15 20 15 12 0 31 11 44 25 13 14 26 25 30 25 12 0
66 57 66 69 0 6 7 11 15 11 8 0 15 5 15 11 0 7 11 22 25 35 14 13 25 30 25 39
0 9 7 23 15 31 8 9 15 24 15 35 0 10 4 19 9 19 4 0 11 27 15 60 4 33 11 60 16
60 6 0 10 14 10 30 l0 30 -225 0 -225 0 0 -49z"/>
<path d="M3013 1255 c-17 -19 -16 -83 1 -101 17 -16 36 -19 36 -4 0 6 72 10
196 10 156 0 198 -3 210 -14 33 -33 17 -36 -221 -36 l-235 0 0 -129 c0 -108 3
-130 16 -135 9 -3 146 -6 305 -6 l289 0 0 55 0 55 -240 0 -240 0 0 25 0 25
228 2 227 3 3 123 3 122 -66 0 c-37 0 -65 4 -65 10 0 6 -79 10 -217 10 -175
-1 -220 -4 -230 -15z"/>
<path d="M2120 995 c0 -80 3 -145 8 -145 13 -1 577 -1 590 0 8 0 12 17 12 50
l0 50 -240 0 -240 0 0 95 0 95 -65 0 -65 0 0 -145z"/>
</g>
</svg>
